<?xml version="1.0" encoding="UTF-8" standalone="no"?>
<svg
   height="52.523998"
   width="178"
   viewBox="-17.949615 -10.000025 178 52.523999"
   version="1.1"
   id="svg3"
   xmlns:xlink="http://www.w3.org/1999/xlink"
   xmlns="http://www.w3.org/2000/svg"
   xmlns:svg="http://www.w3.org/2000/svg">
  <defs
     id="defs3">
    <color-profile
       name="Apple-RGB"
       xlink:href="file:///usr/share/color/icc/colord/AppleRGB.icc"
       id="color-profile2" />
  </defs>
  <path
     d="M 118.40156,-7.2876712 H -5.4972373 c -0.4516,0 -0.89787,0 -1.34835,0.0022 -0.37701,0.0023 -0.750991,0.0082 -1.131721,0.01406 a 16.275314,14.965523 0 0 0 -2.4679997,0.200114 8.208597,7.5479931 0 0 0 -2.34114,0.710137 7.9287783,7.2906933 0 0 0 -1.99346,1.334855 7.707829,7.0875257 0 0 0 -1.45107,1.8357559 8.130021,7.4757408 0 0 0 -0.76977,2.1555641 16.002145,14.71434 0 0 0 -0.22071,2.2672289 c -0.0113,0.3472961 -0.012,0.6956271 -0.018,1.0429071 V 28.451632 c 0.006,0.351639 0.007,0.692287 0.018,1.044147 a 16.001283,14.713547 0 0 0 0.22071,2.267004 8.1132711,7.4603388 0 0 0 0.76977,2.156584 7.64551,7.0302224 0 0 0 1.45107,1.828165 7.727535,7.1056455 0 0 0 1.99346,1.33486 8.2526878,7.5885359 0 0 0 2.34114,0.714365 16.571266,15.23766 0 0 0 2.4679997,0.200211 c 0.38055,0.0075 0.754731,0.01229 1.131831,0.01229 0.4504,0.0022 0.89662,0.0022 1.34824,0.0022 H 118.40143 c 0.4428,0 0.89257,0 1.33507,-0.0022 0.37542,0 0.76026,-0.0044 1.13552,-0.01229 a 16.354381,15.03823 0 0 0 2.46319,-0.200211 8.3801583,7.705748 0 0 0 2.35015,-0.714365 7.7312288,7.1090431 0 0 0 1.99174,-1.33486 7.8758191,7.2419964 0 0 0 1.45524,-1.828165 8.1335928,7.4790249 0 0 0 0.76234,-2.156584 16.634446,15.295755 0 0 0 0.22867,-2.267117 c 0.005,-0.351745 0.005,-0.692399 0.005,-1.044034 0.01,-0.411433 0.01,-0.820601 0.01,-1.23871 V 3.5117078 c 0,-0.414866 0,-0.826105 -0.01,-1.236438 0,-0.347355 0,-0.695687 -0.005,-1.0430191 a 16.635308,15.296548 0 0 0 -0.22852,-2.2672299 8.1503419,7.4944264 0 0 0 -0.76249,-2.1553401 7.963755,7.3228558 0 0 0 -3.44699,-3.1708419 8.3348347,7.6640724 0 0 0 -2.35014,-0.710063 16.064956,14.772097 0 0 0 -2.46319,-0.200114 c -0.37527,-0.0055 -0.76015,-0.01259 -1.13552,-0.01406 -0.44253,-0.0022 -0.89229,-0.0022 -1.33507,-0.0022 z"
     fill="#a6a6a6"
     id="path1"
     style="display:inline;stroke-width:1.181" />
  <path
     d="m -6.6700373,37.020547 c -0.38209,0 -0.754821,-0.0047 -1.134001,-0.01316 a 15.909445,15.38227 0 0 1 -2.3438197,-0.197415 7.378203,7.1337182 0 0 1 -2.07746,-0.664424 6.7786724,6.5540538 0 0 1 -1.75183,-1.232559 6.6722089,6.4511183 0 0 1 -1.27982,-1.693168 7.1751826,6.9374255 0 0 1 -0.68086,-2.009243 15.566355,15.050549 0 0 1 -0.20869,-2.273314 c -0.008,-0.255705 -0.0177,-1.106953 -0.0177,-1.106953 V -0.17776127 c 0,0 0.0108,-0.83830793 0.0177,-1.08463703 a 15.512309,14.998291 0 0 1 0.20746,-2.269674 7.2173166,6.9781634 0 0 1 0.68162,-2.0151899 6.7382938,6.5150132 0 0 1 1.27293,-1.694982 6.978934,6.7476796 0 0 1 1.75857,-1.239708 7.3019606,7.0600025 0 0 1 2.07322,-0.659452 15.782542,15.259572 0 0 1 2.3518497,-0.198708 l 1.131481,-0.01506 H 122.2011 l 1.14489,0.01506 a 15.530618,15.015994 0 0 1 2.33054,0.197122 7.4465452,7.1997962 0 0 1 2.09529,0.664287 7.0144217,6.7819914 0 0 1 3.02838,2.93397 7.2263453,6.9868928 0 0 1 0.67112,1.9992989 16.295549,15.755579 0 0 1 0.21791,2.287983 c 0.004,0.34335813 0.004,0.71224003 0.004,1.07931503 0.01,0.454625 0.01,0.887402 0.01,1.32373097 V 26.520142 c 0,0.440485 0,0.870283 -0.01,1.303609 0,0.394284 0,0.75547 -0.005,1.127199 a 15.964871,15.435859 0 0 1 -0.21444,2.247245 7.1966258,6.9581579 0 0 1 -0.67716,2.024766 6.8722194,6.6445016 0 0 1 -1.27343,1.680068 6.7877008,6.5627834 0 0 1 -1.75485,1.239715 7.3504898,7.1069236 0 0 1 -2.09163,0.666602 15.727744,15.206589 0 0 1 -2.34395,0.19775 49.09293,47.466179 0 0 1 -1.12532,0.01316 l -1.35931,0.0024 z"
     id="path2"
     style="stroke-width:1.23303" />
  <path
     d="m 13.265172,15.702505 a 6.0949291,5.6044272 0 0 1 2.90225,-4.702067 6.2389028,5.7368145 0 0 0 -4.91544,-2.4435562 c -2.0682198,-0.199663 -4.0731298,1.137918 -5.1271298,1.137918 -1.0741899,0 -2.69683,-1.118099 -4.44409,-1.08503 a 6.5463096,6.0194821 0 0 0 -5.50894,3.0891842 c -2.3819095,3.792116 -0.60517,9.36506 1.67657,12.430235 1.14157,1.500993 2.47564005,3.17752 4.22143,3.118065 1.7082201,-0.06508 2.3462001,-1.001682 4.40838,-1.001682 2.04296,0 2.64154,1.001682 4.4226598,0.963856 1.83311,-0.02732 2.98798,-1.50756 4.08953,-3.022708 a 13.50077,12.414269 0 0 0 1.87004,-3.5022 5.8894987,5.4155293 0 0 1 -3.59526,-4.982015 z M 9.9009219,6.5409508 a 6.0009584,5.518019 0 0 0 1.3726201,-3.953042 6.105644,5.6142797 0 0 0 -3.9504698,1.879467 5.710055,5.2505266 0 0 0 -1.40858,3.806725 5.0483176,4.642044 0 0 0 3.9864297,-1.73315 z M 34.859252,23.447549 h -5.82965 l -1.39994,3.801064 h -2.46937 l 5.52187,-14.063164 h 2.56543 l 5.52174,14.063164 h -2.51136 z m -5.22591,-1.754102 h 4.62094 l -2.27795,-6.168856 h -0.0633 z m 21.06105,0.429215 c 0,3.186128 -1.85467,5.233202 -4.65335,5.233202 a 3.7801418,3.4759273 0 0 1 -3.50845,-1.793854 h -0.0527 v 5.0785 h -2.28878 V 16.99546 h 2.21552 v 1.705406 h 0.0422 a 3.9553981,3.6370794 0 0 1 3.55044,-1.812651 c 2.82997,0 4.69548,2.057039 4.69548,5.234331 z m -2.35261,0 c 0,-2.075838 -1.16656,-3.440592 -2.94659,-3.440592 -1.74887,0 -2.92504,1.393405 -2.92504,3.44048 0,2.065986 1.17617,3.449541 2.92504,3.449541 1.78003,0 2.94659,-1.354789 2.94659,-3.449541 z m 14.62523,0 c 0,3.186128 -1.85454,5.233202 -4.65335,5.233202 a 3.7801418,3.4759273 0 0 1 -3.50832,-1.793854 h -0.053 v 5.0785 h -2.28878 V 16.99546 h 2.2154 v 1.705406 h 0.0421 a 3.9553981,3.6370794 0 0 1 3.55045,-1.812651 c 2.83008,0 4.69546,2.057039 4.69546,5.234331 z m -2.35248,0 c 0,-2.075838 -1.16669,-3.440592 -2.94672,-3.440592 -1.74886,0 -2.92503,1.393405 -2.92503,3.44048 0,2.065986 1.17617,3.449541 2.92503,3.449541 1.78003,0 2.94672,-1.354789 2.94672,-3.449541 z m 10.46377,1.20768 c 0.16961,1.394538 1.64296,2.310263 3.65625,2.310263 1.92918,0 3.31719,-0.915725 3.31719,-2.173232 0,-1.0916 -0.83715,-1.745156 -2.81913,-2.193051 l -1.98225,-0.439053 c -2.8083,-0.623786 -4.11206,-1.831459 -4.11206,-3.791219 0,-2.426455 2.29964,-4.093016 5.56497,-4.093016 3.23171,0 5.44723,1.666561 5.52175,4.093016 h -2.31049 c -0.13831,-1.403371 -1.39995,-2.250582 -3.24376,-2.250582 -1.84371,0 -3.10537,0.857176 -3.10537,2.104604 0,0.994319 0.80585,1.579361 2.77701,2.027145 l 1.68507,0.380521 c 3.13787,0.682316 4.44176,1.841417 4.44176,3.898343 0,2.631095 -2.27919,4.27897 -5.90428,4.27897 -3.39182,0 -5.68173,-1.609257 -5.82964,-4.152811 z m 14.33051,-8.761224 v 2.426342 h 2.12044 v 1.666676 h -2.12044 v 5.652443 c 0,0.878126 0.42454,1.287293 1.35673,1.287293 a 7.1525017,6.5768898 0 0 0 0.7529,-0.04871 v 1.656822 a 6.2854574,5.7796224 0 0 1 -1.27126,0.09716 c -2.25752,0 -3.13799,-0.779603 -3.13799,-2.768127 v -5.876865 h -1.62129 v -1.666674 h 1.62126 v -2.426344 z m 3.34847,7.553541 c 0,-3.226101 2.06624,-5.253244 5.28848,-5.253244 3.23293,0 5.28957,2.027143 5.28957,5.253244 0,3.234822 -2.04592,5.253131 -5.2897,5.253131 -3.24255,0 -5.28835,-2.018309 -5.28835,-5.253131 z m 8.24591,0 c 0,-2.212982 -1.1029,-3.519187 -2.95756,-3.519187 -1.85455,0 -2.95632,1.316056 -2.95632,3.519187 0,2.221817 1.10177,3.517943 2.95632,3.517943 1.85466,0 2.95756,-1.296126 2.95756,-3.517943 z m 4.219058,-5.127199 h 2.183 v 1.745156 h 0.053 a 2.6595114,2.4454819 0 0 1 2.68217,-1.852401 3.5300044,3.2459203 0 0 1 0.78417,0.07848 v 1.968593 a 3.19969,2.9421885 0 0 0 -1.02839,-0.127169 2.3062893,2.1206859 0 0 0 -2.38499,2.358959 v 6.081543 h -2.28892 z m 16.255,7.241659 c -0.30789,1.861346 -2.2792,3.138671 -4.80126,3.138671 -3.24379,0 -5.2572,-1.998377 -5.2572,-5.204548 0,-3.216023 2.02424,-5.301827 5.16089,-5.301827 3.08515,0 5.02503,1.948662 5.02503,5.057439 v 0.721049 h -7.87543 v 0.127185 a 2.9041067,2.6703928 0 0 0 2.99955,2.904249 2.5226808,2.3196631 0 0 0 2.57514,-1.442216 z m -7.73714,-3.060083 h 5.57457 a 2.681557,2.4657532 0 0 0 -2.735,-2.60233 2.8228213,2.5956491 0 0 0 -2.83957,2.60233 z M 29.346482,2.6000248 a 3.2509245,2.9892997 0 0 1 3.45784,3.357697 c 0,2.158737 -1.26891,3.399712 -3.45784,3.399712 h -2.65445 v -6.75752 z m -1.51301,5.801708 h 1.38556 a 2.3103535,2.1244231 0 0 0 2.42341,-2.430307 2.3166345,2.1301988 0 0 0 -2.42341,-2.416488 h -1.38556 z m 6.26022,-1.596349 a 2.6272436,2.4158107 0 1 1 5.23059,0 2.6277361,2.4162637 0 1 1 -5.23059,0 z m 4.10491,0 c 0,-1.105415 -0.54007,-1.751836 -1.48777,-1.751836 -0.9514,0 -1.48653,0.646417 -1.48653,1.751836 0,1.11425 0.53524,1.755688 1.48653,1.755688 0.94772,0 1.48777,-0.645854 1.48777,-1.755688 z m 8.07879,2.551936 h -1.13554 l -1.14611,-3.755763 h -0.0862 l -1.14134,3.755763 h -1.12457 l -1.52865,-5.099566 h 1.11004 l 0.99353,3.891208 h 0.0817 l 1.14018,-3.891208 h 1.04994 l 1.14021,3.891208 h 0.0862 l 0.9886,-3.891208 h 1.09453 z m 2.80829,-5.099453 h 1.05363 v 0.810061 h 0.0817 a 1.6601931,1.5265859 0 0 1 1.655,-0.908587 1.8037975,1.6586332 0 0 1 1.91956,1.89668 v 3.301186 h -1.09445 v -3.048416 c 0,-0.819461 -0.38734,-1.227044 -1.19674,-1.227044 a 1.27224,1.169854 0 0 0 -1.32422,1.292276 v 2.983297 h -1.09451 z m 6.45393,-1.990784 h 1.0944 v 7.090237 h -1.0944 z m 2.61591,4.538301 a 2.6276129,2.4161506 0 1 1 5.23135,0 2.6279825,2.4164902 0 1 1 -5.23135,0 z m 4.10492,0 c 0,-1.105415 -0.54004,-1.751836 -1.48777,-1.751836 -0.9514,0 -1.48654,0.646417 -1.48654,1.751836 0,1.11425 0.53525,1.755688 1.48654,1.755688 0.94772,0 1.48777,-0.645854 1.48777,-1.755688 z m 2.27858,1.109834 c 0,-0.91799 0.74327,-1.447199 2.06268,-1.522395 l 1.50218,-0.07959 v -0.440194 c 0,-0.538608 -0.38721,-0.842679 -1.13529,-0.842679 -0.611,0 -1.03442,0.20623 -1.15585,0.566806 h -1.05966 c 0.11184,-0.875974 1.00793,-1.437685 2.26601,-1.437685 1.39035,0 2.1745,0.636451 2.1745,1.713559 v 3.484277 h -1.05362 v -0.716638 h -0.0866 a 1.8658701,1.7157104 0 0 1 -1.66573,0.800662 1.6753419,1.5405153 0 0 1 -1.84863,-1.526126 z m 3.56486,-0.435782 v -0.426379 l -1.35426,0.07958 c -0.76371,0.04693 -1.11016,0.285958 -1.11016,0.735436 0,0.458998 0.43302,0.726143 1.02838,0.726143 a 1.3073406,1.2021298 0 0 0 1.43604,-1.114787 z m 2.52822,-0.674053 c 0,-1.611408 0.90079,-2.632115 2.30198,-2.632115 a 1.8276906,1.6806034 0 0 1 1.70071,0.894661 h 0.0817 v -2.800967 h 1.09442 v 7.090247 h -1.04871 v -0.805763 h -0.0862 a 1.9247404,1.7698429 0 0 1 -1.7415,0.889792 c -1.41091,0 -2.3021,-1.02082 -2.3021,-2.635966 z m 1.13061,0 c 0,1.081521 0.55446,1.73247 1.48161,1.73247 0.92247,0 1.4927,-0.660238 1.4927,-1.728166 0,-1.062721 -0.57616,-1.732359 -1.4927,-1.732359 -0.92124,0 -1.48161,0.655249 -1.48161,1.728055 z m 8.5766,0 a 2.6272436,2.4158107 0 1 1 5.23059,0 2.6277361,2.4162637 0 1 1 -5.23059,0 z m 4.10491,0 c 0,-1.105416 -0.54004,-1.751837 -1.48776,-1.751837 -0.95142,0 -1.48655,0.646417 -1.48655,1.751837 0,1.114248 0.53528,1.755687 1.48655,1.755687 0.9477,0 1.48776,-0.645854 1.48776,-1.755687 z m 2.59424,-2.547519 h 1.05363 v 0.810062 h 0.0817 a 1.6601931,1.5265859 0 0 1 1.65502,-0.908591 1.8037975,1.6586332 0 0 1 1.91957,1.896681 v 3.301189 h -1.09448 v -3.048416 c 0,-0.819461 -0.38737,-1.227044 -1.19674,-1.227044 a 1.27224,1.169854 0 0 0 -1.32422,1.292275 v 2.983297 h -1.09439 z m 10.89445,-1.269627 v 1.292844 h 1.20155 v 0.847663 h -1.20155 v 2.622149 c 0,0.534187 0.23935,0.768162 0.78417,0.768162 a 3.6536567,3.3596213 0 0 0 0.41726,-0.0234 v 0.83838 a 3.5907221,3.3017515 0 0 1 -0.59536,0.05145 c -1.21707,0 -1.70181,-0.393767 -1.70181,-1.376871 v -2.87989 h -0.88036 v -0.847777 h 0.88036 v -1.292611 z m 2.696458,-0.721139 h 1.08492 v 2.81026 h 0.0863 a 1.7065013,1.5691672 0 0 1 1.69133,-0.913576 1.8269515,1.679924 0 0 1 1.90995,1.901212 v 3.292351 h -1.09568 v -3.044114 c 0,-0.814596 -0.4126,-1.227044 -1.18591,-1.227044 a 1.2956405,1.1913712 0 0 0 -1.39635,1.292841 v 2.978314 h -1.09453 z m 11.1542,5.713266 a 2.25136,2.0701773 0 0 1 -2.40308,1.475389 2.5189861,2.3162656 0 0 1 -2.56185,-2.632114 2.5577814,2.3519389 0 0 1 2.55703,-2.664278 c 1.54308,0 2.47403,0.969405 2.47403,2.570734 v 0.351182 h -3.91611 v 0.05642 a 1.4658473,1.3478801 0 0 0 1.47693,1.460902 1.3292631,1.2222879 0 0 0 1.31943,-0.618224 z m -3.84998,-1.643348 h 2.80116 a 1.3381305,1.2304417 0 0 0 -1.36509,-1.321041 1.4183076,1.3041664 0 0 0 -1.43607,1.321041 z"
     fill="#ffffff"
     id="path3"
     style="display:inline;stroke-width:1.181" />
</svg>
